<svg width="22" height="22" viewBox="0 0 22 22" fill="none" xmlns="http://www.w3.org/2000/svg">
<path fill-rule="evenodd" clip-rule="evenodd" d="M11 0C4.92492 0 0 4.92492 0 11C0 17.0751 4.92492 22 11 22C17.0751 22 22 17.0751 22 11C22 4.92492 17.0751 0 11 0ZM6.92208 6.92208C7.35167 6.49249 8.04813 6.49249 8.47772 6.92208L10.9998 9.44416L13.5219 6.92208C13.9515 6.49249 14.6479 6.49249 15.0775 6.92208C15.507 7.35167 15.507 8.04813 15.0775 8.47772L12.5554 10.9998L15.0775 13.5219C15.507 13.9515 15.507 14.6479 15.0775 15.0775C14.6479 15.507 13.9515 15.507 13.5219 15.0775L10.9998 12.5554L8.47772 15.0775C8.04813 15.507 7.35167 15.507 6.92208 15.0775C6.49249 14.6479 6.49249 13.9515 6.92208 13.5219L9.44416 10.9998L6.92208 8.47772C6.49249 8.04813 6.49249 7.35167 6.92208 6.92208Z" fill="black" fill-opacity="0.3"/>
</svg>
