<svg width="36" height="38" viewBox="0 0 36 38" fill="none" xmlns="http://www.w3.org/2000/svg">
<path d="M22.1793 33.4377C21.83 33.0821 21.637 32.6031 21.6427 32.1059C21.6483 31.6087 21.8522 31.134 22.2094 30.7864L24.6853 28.3751H6.69639C6.02328 28.3751 5.40122 28.0176 5.0646 27.4375C4.72798 26.8575 4.72798 26.1426 5.0646 25.5625C5.40122 24.9824 6.02328 24.625 6.69639 24.625H24.6853L22.2094 22.2155C21.7284 21.7466 21.5355 21.058 21.703 20.409C21.8706 19.76 22.3735 19.2494 23.022 19.0693C23.6706 18.8892 24.3664 19.0672 24.8474 19.5361L32 26.5L24.8398 33.4658C24.4825 33.8135 24.001 34.0055 23.5014 33.9999C23.0017 33.9943 22.5248 33.7914 22.1755 33.4359L22.1793 33.4377ZM11.1602 18.4655L4 11.4997L11.1602 4.53577C11.5173 4.1876 11.9986 3.99497 12.4985 4.0001C12.9983 4.0051 13.4756 4.20762 13.8255 4.56299C14.1753 4.91821 14.3689 5.39735 14.3638 5.89467C14.3587 6.39212 14.1552 6.8671 13.7981 7.21514L11.3165 9.62463H29.3055C29.9787 9.62463 30.6007 9.98208 30.9373 10.5622C31.2739 11.1422 31.2739 11.8571 30.9373 12.4372C30.6007 13.0173 29.9787 13.3747 29.3055 13.3747H11.3165L13.7925 15.7842C14.2738 16.2531 14.4671 16.942 14.2997 17.5911C14.1322 18.2404 13.6295 18.7514 12.9807 18.9318C12.332 19.1121 11.6359 18.9344 11.1545 18.4654L11.1602 18.4655Z" fill="#00A5F2"/>
</svg>
