<svg width="26" height="26" viewBox="0 0 26 26" fill="none" xmlns="http://www.w3.org/2000/svg">
<rect width="26" height="26" rx="13" fill="white"/>
<path d="M18.9759 14.4528C18.9868 14.4216 18.9934 14.389 18.9954 14.356C18.996 14.348 19 14.3414 19 14.3333V7.36667C19 7.26942 18.9614 7.17616 18.8926 7.1074C18.8239 7.03861 18.7306 7 18.6333 7H8.36667C8.26942 7 8.17616 7.03861 8.1074 7.1074C8.03861 7.17615 8 7.26942 8 7.36667V17.6333C8 17.7306 8.03861 17.8238 8.1074 17.8926C8.17615 17.9614 8.26942 18 8.36667 18H15.3333C15.4306 17.9996 15.5238 17.9609 15.5928 17.8923L18.8923 14.5928L18.8936 14.5913L18.8936 14.5913C18.9228 14.561 18.9465 14.5258 18.9636 14.4874C18.9683 14.4761 18.9724 14.4645 18.9759 14.4527L18.9759 14.4528ZM14.9667 14.3333V17.2667H8.73335V7.73333H18.2667V13.9667H15.3333C15.2361 13.9667 15.1428 14.0053 15.0741 14.0741C15.0053 14.1428 14.9667 14.2361 14.9667 14.3333ZM15.7 16.7481V14.7H17.7482L15.7 16.7481Z" fill="black"/>
</svg>
