<svg width="20" height="19" viewBox="0 0 20 19" fill="none" xmlns="http://www.w3.org/2000/svg">
<circle cx="7.5" cy="9.5" r="7.25" stroke="#737373" stroke-width="0.5"/>
<path d="M7.49996 3.09432C9.27883 3.09432 10.8885 3.81985 12.0492 4.99039L9.83811 5.2056C9.74129 5.21493 9.65497 5.27151 9.60715 5.35666L8.48386 7.36932C8.4442 7.44047 8.43545 7.52446 8.45994 7.60203L9.00701 9.36683C9.04492 9.48873 9.15574 9.57271 9.28288 9.57621L10.5776 9.61179L11.1439 10.5467L10.7514 12.0042C10.7374 12.0555 10.7374 12.1092 10.752 12.1605L11.0944 13.3946C11.1235 13.4996 11.2075 13.5801 11.3137 13.6046L12.2311 13.8186C11.8129 14.2765 11.3288 14.6736 10.7946 14.9944L10.7923 14.9956C9.82996 15.5736 8.70436 15.9048 7.49995 15.9048C6.21504 15.9048 5.01897 15.5269 4.01638 14.876L4.01579 14.8754C3.95806 14.8375 3.90032 14.8002 3.84374 14.7605L3.84258 14.7599C2.18092 13.6028 1.09384 11.6781 1.09384 9.49986H1.09501C1.09501 9.38088 1.09792 9.26308 1.10434 9.14584L1.9127 9.2794L2.9351 10.2353L3.55798 11.6292C3.58131 11.6811 3.61864 11.7254 3.66588 11.7564L4.88425 12.5577L4.9939 13.6437C5.0009 13.7119 5.03064 13.7755 5.07905 13.8239L5.93173 14.6772C5.98713 14.7326 6.0612 14.7635 6.13936 14.7646L7.0737 14.7734H7.07662C7.23759 14.7734 7.36939 14.6451 7.37348 14.4841L7.41664 12.8476L8.66534 11.1136C8.74582 11.0017 8.73882 10.8494 8.64901 10.7456L7.42656 9.33069C7.41023 9.31203 7.39215 9.2957 7.37232 9.2817L6.09798 8.38586C6.04783 8.35086 5.98834 8.3322 5.9271 8.3322C5.90902 8.3322 5.89036 8.33395 5.87228 8.33745L4.10971 8.67105L3.60172 8.17356L4.68653 7.39495C4.73494 7.36054 4.77169 7.31213 4.7921 7.25615L5.50306 5.31976C5.54855 5.1967 5.50773 5.05906 5.40333 4.98032L4.15463 4.03666C5.12803 3.43884 6.27341 3.09416 7.49997 3.09416L7.49996 3.09432ZM7.49938 2.5C3.6337 2.5 0.5 5.6342 0.5 9.5C0.5 13.3657 3.6342 16.5 7.5 16.5C11.3657 16.5 14.5 13.3658 14.5 9.5C14.5 5.6337 11.3663 2.5 7.50062 2.5H7.49938Z" fill="#737373"/>
</svg>
