<svg width="19" height="19" viewBox="0 0 19 19" fill="none" xmlns="http://www.w3.org/2000/svg">
<path d="M15 5.3445V14.44C15 14.7491 14.7488 15.0025 14.4375 15.0025H9.90015C9.74487 15.0025 9.59619 15.0662 9.48925 15.179L8.88574 15.822C8.7788 15.9363 8.63086 16 8.47485 16H6.52515C6.36988 16 6.2212 15.9363 6.11426 15.822L5.51075 15.179C5.40381 15.0662 5.25587 15.0025 5.09985 15.0025L0.562501 15.0018C0.251219 15.0018 0 14.7483 0 14.4393V5.34377C0 5.0325 0.251219 4.7813 0.562501 4.7813H1.0503V13.1489C1.0503 13.3591 1.13672 13.5575 1.29053 13.7004C1.42896 13.83 1.61133 13.8988 1.8003 13.8988C1.81934 13.8988 1.83765 13.8988 1.8567 13.8966C2.74367 13.8293 3.42998 13.797 4.0203 13.797C5.53349 13.797 6.51936 14.0182 6.94702 14.4591C7.22901 14.7784 7.77099 14.7784 8.05298 14.4591C8.48071 14.0182 9.46656 13.797 10.9797 13.797C11.57 13.797 12.2563 13.8293 13.1433 13.8966C13.1623 13.8988 13.1807 13.8988 13.1997 13.8988C13.3894 13.8988 13.571 13.8293 13.7095 13.7004C13.8633 13.5575 13.9497 13.3591 13.9497 13.1489V4.78208H14.4375C14.7488 4.78208 15 5.03328 15 5.34455L15 5.3445ZM8.24999 13.4535C8.94946 13.1518 9.90015 13.0485 10.9798 13.0485C11.6771 13.0485 12.4293 13.0917 13.1998 13.1496V3.37361C12.5795 3.34138 11.9906 3.32307 11.4428 3.32307C10.0871 3.32307 8.98108 3.43366 8.24795 3.70904C8.25015 3.71636 8.25015 3.72588 8.25015 3.73321L8.24999 13.4535ZM6.74998 13.4535V13.4513C6.22703 12.1066 5.15623 11.4247 3.56826 11.4247H3.54043C3.34194 11.4247 3.15224 11.3456 3.01161 11.2072C2.86879 11.0665 2.79042 10.8754 2.79042 10.6747L2.78969 3.33412C2.47108 3.34144 2.14077 3.35682 1.79946 3.37367V13.1496C2.56996 13.0918 3.32216 13.0485 4.01946 13.0485C5.09979 13.0485 6.04978 13.1518 6.74931 13.4536L6.74998 13.4535ZM6.74998 11.9887C6.88695 12.1462 7.01219 12.3227 7.12498 12.5138C7.26927 12.7541 7.39525 13.0199 7.49998 13.3143V3.73322C7.49413 3.71857 7.489 3.70319 7.48094 3.68854C7.47728 3.67536 7.47142 3.66437 7.46629 3.65266C7.42308 3.54426 7.3784 3.43879 7.33153 3.33773C7.29051 3.24985 7.2473 3.1649 7.20409 3.08287C6.47093 1.71258 5.30643 1 3.67892 1C3.63205 1 3.58737 1 3.54049 1.0022V10.6749H3.56832C4.76437 10.6749 5.93474 11.0352 6.75005 11.9895L6.74998 11.9887Z" fill="#737373"/>
</svg>
