<svg width="20" height="19" viewBox="0 0 20 19" fill="none" xmlns="http://www.w3.org/2000/svg">
<path fill-rule="evenodd" clip-rule="evenodd" d="M6.27259 6.7978C6.73734 6.7978 7.1122 7.17129 7.1122 7.63615L7.11079 9.25699C7.11079 9.79283 6.92966 10.0264 6.55982 10.2406L6.66385 13.2597C6.64217 13.6792 5.83861 13.6766 5.78946 13.2597L5.53734 11.1248C5.5294 11.0563 5.48339 10.9994 5.41319 10.9994C5.34299 10.9994 5.29709 11.0563 5.28915 11.1248L5.03703 13.2597C4.98774 13.6766 4.18354 13.6792 4.16264 13.2597L4.26638 10.2404C3.89617 10.0262 3.71492 9.79265 3.71492 9.25681L3.71429 7.63596C3.71429 7.17111 4.08842 6.79761 4.55327 6.79761H4.64792C4.86839 6.93085 5.13361 7.00774 5.41331 7.00774C5.69301 7.00774 5.95771 6.93096 6.17817 6.79761H6.2726L6.27259 6.7978Z" fill="#737373"/>
<path fill-rule="evenodd" clip-rule="evenodd" d="M5.41306 4.50003C4.81822 4.50003 4.33969 4.90894 4.33969 5.41716V5.79265C4.33969 6.30023 4.81817 6.70914 5.41306 6.70914C6.00796 6.70914 6.48653 6.30023 6.48653 5.79265V5.41716C6.48653 4.90894 6.00794 4.50003 5.41306 4.50003Z" fill="#737373"/>
<path d="M5.5 2.83525C3.65385 1.70834 1.39744 2.83525 0.5 3.53957V16.5694C1.65385 15.9825 4.26923 15.0199 5.5 15.8651C7.34615 17.2737 9.60256 16.452 10.5 15.8651V2.83525C9.60256 3.3048 7.34615 3.96216 5.5 2.83525Z" stroke="#737373" stroke-linejoin="round"/>
</svg>
